<?xml version="1.0" standalone="no"?>
<!DOCTYPE svg PUBLIC "-//W3C//DTD SVG 20010904//EN"
 "http://www.w3.org/TR/2001/REC-SVG-20010904/DTD/svg10.dtd">
<svg version="1.0" xmlns="http://www.w3.org/2000/svg"
 width="500.000000pt" height="500.000000pt" viewBox="0 0 500.000000 500.000000"
 preserveAspectRatio="xMidYMid meet">

<g transform="translate(0.000000,500.000000) scale(0.100000,-0.100000)"
fill="#000000" stroke="none">
<path d="M2305 3930 c-69 -18 -238 -63 -282 -76 -13 -3 -21 -10 -18 -14 3 -5
-4 -6 -15 -3 -11 3 -32 2 -47 -2 -21 -5 -24 -8 -12 -16 11 -7 9 -9 -9 -9 -34
0 -88 -33 -84 -51 2 -12 -6 -18 -32 -21 -20 -2 -41 1 -47 7 -6 6 -9 6 -7 0 5
-16 -44 -65 -66 -66 -12 0 -37 -7 -56 -14 l-35 -13 34 -8 c27 -6 30 -9 16 -16
-9 -6 -28 -7 -43 -4 -22 5 -24 4 -9 -4 28 -18 11 -28 -37 -23 -37 5 -46 2 -55
-16 -10 -17 -9 -21 4 -21 9 0 18 7 21 15 4 8 10 15 16 15 5 0 6 -5 2 -11 -7
-12 31 -6 101 16 22 7 77 21 123 31 45 10 82 21 82 26 0 4 6 5 14 2 7 -3 68 9
136 26 68 17 129 29 137 26 8 -4 63 43 141 119 70 68 120 124 112 124 -8 0
-46 -9 -85 -19z"/>
<path d="M1708 3733 c6 -2 18 -2 25 0 6 3 1 5 -13 5 -14 0 -19 -2 -12 -5z"/>
<path d="M1722 3592 c-368 -90 -393 -94 -410 -79 -26 24 -49 21 -64 -7 -15
-28 -82 -84 -115 -97 -33 -12 -28 -29 8 -29 16 0 28 4 25 9 -3 5 1 12 10 15
23 9 24 8 24 -11 -1 -28 -25 -53 -52 -53 -24 0 -84 -51 -72 -62 3 -4 -4 -11
-15 -18 -12 -6 -19 -15 -16 -20 3 -6 -1 -7 -9 -4 -9 3 -16 2 -16 -4 0 -5 -10
-12 -22 -15 -26 -6 -95 -25 -118 -32 -8 -3 -76 -20 -150 -39 -74 -19 -189 -48
-255 -65 -66 -17 -128 -31 -138 -31 -11 0 -15 -4 -11 -12 4 -6 3 -8 -3 -5 -16
10 -144 -24 -150 -40 -14 -36 22 -31 348 47 184 44 340 83 347 85 7 3 19 -9
27 -28 34 -79 105 -291 105 -315 l0 -25 -23 21 c-28 26 -39 28 -30 5 5 -12 3
-14 -8 -8 -8 4 -11 5 -7 1 3 -4 -2 -27 -13 -51 -33 -75 -47 -267 -29 -394 14
-96 52 -225 64 -214 4 4 5 1 2 -7 -4 -8 4 -31 16 -50 12 -19 22 -38 23 -42 0
-4 8 -16 17 -28 10 -11 15 -20 12 -20 -4 0 -1 -7 6 -15 7 -8 16 -12 21 -9 5 3
6 -3 2 -12 -5 -14 -3 -16 11 -11 10 4 15 3 11 -4 -8 -13 14 -41 26 -33 5 3 8
0 7 -8 -2 -7 4 -12 12 -10 8 2 12 0 7 -4 -4 -4 5 -20 20 -36 27 -28 51 -39 37
-16 -4 7 -3 8 5 4 6 -4 9 -11 6 -15 -2 -5 17 -23 43 -42 29 -20 41 -26 32 -14
-13 18 -11 17 10 -1 43 -37 97 -60 225 -95 77 -21 378 -18 478 5 42 10 80 22
83 27 3 5 16 9 30 9 13 0 53 13 88 29 35 16 68 26 72 22 5 -3 9 -24 9 -46 0
-37 2 -40 29 -43 15 -2 26 1 23 5 -4 6 17 6 50 2 31 -4 60 -6 65 -3 4 3 8 149
8 324 0 245 -3 319 -12 323 -10 4 -10 6 0 6 17 1 15 28 -4 35 -9 3 -106 6
-217 6 l-202 0 -2 -40 -3 -39 132 -3 132 -3 -1 -27 c-1 -16 -1 -111 -2 -213
-1 -154 -3 -185 -15 -185 -8 0 -18 -5 -22 -12 -5 -7 -2 -8 7 -3 11 6 12 5 2
-5 -7 -7 -20 -14 -30 -15 -32 -3 -92 -28 -87 -37 3 -4 -5 -8 -18 -8 -13 0 -56
-9 -96 -20 -115 -32 -339 -25 -451 13 -22 8 -49 10 -66 6 -24 -6 -27 -5 -13 4
14 9 11 13 -24 29 -22 10 -45 15 -51 11 -5 -3 -7 -1 -3 5 3 6 -11 20 -31 33
-21 13 -42 29 -46 36 -10 17 -31 17 -21 1 4 -8 3 -10 -2 -5 -5 5 -9 13 -9 17
0 5 -18 28 -40 52 -22 23 -34 38 -26 33 8 -5 3 7 -12 27 -15 19 -32 49 -38 66
-6 18 -15 29 -20 26 -5 -3 -6 3 -2 12 4 11 3 15 -4 11 -7 -5 -9 1 -5 15 3 11
1 19 -4 16 -5 -4 -10 4 -10 15 -1 12 -9 54 -18 94 -17 78 -22 213 -10 308 4
33 7 72 7 86 l0 27 81 -5 c76 -5 86 -4 142 25 55 28 188 123 305 219 25 21 84
69 130 107 46 37 83 72 81 78 -1 5 2 7 7 4 5 -4 12 -2 15 3 4 5 2 13 -4 16 -8
5 -7 11 1 21 10 12 9 13 -6 8 -12 -5 -16 -4 -11 4 3 6 -7 45 -24 87 -16 41
-30 81 -30 88 0 8 17 18 38 23 32 8 37 13 34 36 -2 22 18 46 123 150 118 115
154 142 147 110 -1 -8 2 -11 8 -7 16 10 12 32 -8 37 -10 3 -195 -38 -410 -90z
m-592 -276 c0 -3 -4 -8 -10 -11 -5 -3 -10 -1 -10 4 0 6 5 11 10 11 6 0 10 -2
10 -4z m47 -52 c-3 -3 -12 -4 -19 -1 -8 3 -5 6 6 6 11 1 17 -2 13 -5z m-107
-568 c0 -2 -7 -7 -16 -10 -8 -3 -12 -2 -9 4 6 10 25 14 25 6z m110 -686 c0 -5
-4 -10 -10 -10 -5 0 -10 5 -10 10 0 6 5 10 10 10 6 0 10 -4 10 -10z m387 -276
c-3 -3 -12 -4 -19 -1 -8 3 -5 6 6 6 11 1 17 -2 13 -5z m863 -58 c0 -3 -4 -8
-10 -11 -5 -3 -10 -1 -10 4 0 6 5 11 10 11 6 0 10 -2 10 -4z"/>
<path d="M1548 3613 c7 -3 16 -2 19 1 4 3 -2 6 -13 5 -11 0 -14 -3 -6 -6z"/>
<path d="M1410 3556 c0 -2 7 -7 16 -10 8 -3 12 -2 9 4 -6 10 -25 14 -25 6z"/>
<path d="M2282 3326 c1 -10 8 -17 13 -17 15 1 12 24 -3 29 -9 3 -13 -2 -10
-12z"/>
<path d="M1961 3214 c7 -21 6 -31 -7 -45 -14 -16 -14 -18 7 -30 13 -6 36 -12
51 -11 17 0 26 -4 22 -9 -3 -6 0 -9 7 -8 8 2 34 -7 58 -20 29 -15 52 -21 70
-16 22 5 24 4 11 -7 -8 -7 -14 -12 -11 -11 2 1 10 -5 18 -13 17 -17 40 -13 35
5 -1 7 2 10 8 6 8 -5 8 -11 0 -20 -9 -11 -5 -22 17 -50 15 -19 31 -35 36 -35
4 0 7 -9 7 -20 0 -16 7 -20 34 -20 l34 0 -5 43 c-4 23 -10 44 -15 45 -4 2 -5
8 -2 13 13 22 -19 66 -74 100 -74 48 -133 77 -165 83 -14 2 -35 10 -47 16 -12
6 -24 9 -28 6 -3 -3 1 -6 8 -6 7 0 11 -2 8 -5 -8 -9 -38 6 -32 16 3 5 -1 6 -9
3 -8 -3 -18 -1 -22 5 -13 22 -24 10 -14 -15z m244 -82 c-3 -3 -11 0 -18 7 -9
10 -8 11 6 5 10 -3 15 -9 12 -12z m44 -25 c8 -10 7 -14 -4 -14 -8 0 -12 5 -8
10 3 5 -4 6 -18 2 -19 -5 -21 -4 -9 4 20 14 25 14 39 -2z"/>
<path d="M2887 3224 c-4 -4 -7 -358 -7 -786 l0 -779 336 1 c269 1 342 4 370
16 19 8 39 12 45 8 18 -11 212 73 203 88 -3 4 1 5 8 3 14 -6 68 29 120 77 16
15 32 29 36 30 4 2 6 6 4 11 -1 4 1 6 5 5 5 -2 9 1 10 5 1 4 18 24 38 44 50
50 125 181 130 228 1 6 7 23 13 39 25 59 35 124 36 245 1 88 -2 125 -11 128
-7 3 -10 10 -7 17 3 7 0 26 -7 42 -6 16 -13 39 -15 52 -8 39 -59 137 -71 135
-6 -1 -9 5 -7 15 3 10 -10 33 -33 56 -21 22 -31 36 -23 31 13 -8 13 -6 1 8 -7
9 -17 14 -22 11 -5 -3 -8 -2 -7 3 5 14 -82 94 -95 87 -7 -4 -9 -4 -5 1 10 11
-39 48 -53 39 -7 -4 -9 -3 -6 3 4 6 -11 18 -36 28 -23 9 -43 15 -44 13 -1 -1
-8 5 -15 15 -7 9 -27 18 -45 20 -17 1 -29 6 -25 11 3 5 -2 7 -10 3 -9 -3 -25
1 -37 10 -12 8 -29 12 -38 9 -8 -4 -21 -2 -27 2 -6 5 -24 12 -40 16 -39 9
-660 18 -669 10z m491 -88 c3 -3 18 -6 34 -6 21 0 27 4 22 13 -6 8 -3 8 9 -1
9 -8 22 -10 28 -6 8 4 9 3 5 -5 -5 -8 1 -11 21 -10 15 1 45 -5 65 -14 20 -8
39 -13 42 -10 3 3 12 -2 21 -10 8 -9 22 -14 30 -11 8 4 18 -1 21 -10 3 -9 10
-14 14 -11 4 3 11 -2 14 -11 4 -9 13 -14 22 -10 8 3 13 2 10 -3 -3 -4 12 -18
34 -30 21 -12 48 -37 60 -56 12 -19 28 -35 36 -35 8 0 13 -6 12 -12 -2 -7 5
-12 14 -12 10 1 15 -2 13 -6 -7 -12 37 -100 46 -94 4 2 8 -4 8 -13 0 -18 40
-138 53 -159 4 -6 9 -59 12 -119 3 -86 -1 -130 -19 -219 -13 -61 -20 -115 -17
-120 3 -5 0 -6 -5 -3 -12 8 -23 -14 -23 -44 0 -10 -5 -19 -12 -19 -6 0 -9 -3
-5 -6 3 -3 -1 -13 -9 -22 -8 -10 -14 -21 -14 -25 1 -4 -7 -16 -18 -25 -10 -10
-12 -13 -2 -8 8 5 -10 -15 -40 -43 -30 -29 -54 -56 -53 -62 2 -5 0 -8 -5 -7
-11 4 -82 -42 -82 -53 0 -6 -4 -7 -10 -4 -5 3 -10 1 -10 -5 0 -6 -5 -8 -10 -5
-6 3 -13 -1 -16 -9 -3 -9 -10 -13 -15 -10 -5 3 -23 -4 -39 -16 -16 -12 -34
-18 -40 -15 -5 3 -10 1 -10 -4 0 -6 -12 -11 -27 -11 -22 0 -25 -2 -13 -10 8
-5 10 -10 4 -10 -5 0 -15 5 -21 11 -8 8 -26 8 -64 -1 -33 -7 -117 -10 -212 -8
l-158 3 0 695 c0 609 2 695 15 700 20 7 276 3 284 -4z m610 -321 c-3 -3 -9 2
-12 12 -6 14 -5 15 5 6 7 -7 10 -15 7 -18z m150 -20 c-3 -3 -9 2 -12 12 -6 14
-5 15 5 6 7 -7 10 -15 7 -18z m79 -457 c-3 -8 -6 -5 -6 6 -1 11 2 17 5 13 3
-3 4 -12 1 -19z m-232 -248 c-9 -16 -18 -30 -21 -30 -2 0 2 14 11 30 9 17 18
30 21 30 2 0 -2 -13 -11 -30z m125 -59 c-5 -11 -15 -23 -22 -27 -7 -5 -8 -2
-3 7 21 37 44 55 25 20z m-637 -338 c-7 -2 -19 -2 -25 0 -7 3 -2 5 12 5 14 0
19 -2 13 -5z"/>
</g>
</svg>
