<?xml version="1.0" encoding="UTF-8"?>
<svg version="1.1" viewBox="0 0 1320 1000" width="1320" height="1000" xmlns="http://www.w3.org/2000/svg">
<path transform="translate(0)" d="m0 0h1320v1e3h-1320z" fill="#0A0A0A"/>
<path transform="translate(545,376)" d="m0 0h75l8 7 31 31 7-6 29-29 4 2 12 12-6 7-10 10-7 8-10 10-8 7-10 10-7-6-13-13-8-7-2-2-1 80h-84z" fill="#0B0A0A"/>
<path transform="translate(630,563)" d="m0 0h9l11 4 8 8 4 8 1 4v22l-4 17-10 25-9 17-9 12-11 12-14 9-5 2-6 1h-8l-1-4-7-1 2-18-3 16h-8v-8l5-28 10-42 8-40 2-5 4-2h6l10-5z" fill="#DA171A"/>
<path transform="translate(538,200)" d="m0 0h307v251h-141v-13h128v-225h-294z" fill="#DB181B"/>
<path transform="translate(713,565)" d="m0 0h10l10 4 8 7 5 8 4 16v10l-3 13-5 10-9 11-10 7-8 4 2 4 12 14 12 11 2 1-1 4-4 5-5 5-4-2h-1l2 4-5 5-7-6-9-11-8-10-8-11-3-4v-2h-2l-1 14-3 26h-10l-7-1 1-17-3 14h-7l-1-4 5-30 14-63 5-26 4-4 9-1 13-4z" fill="#DA171A"/>
<path transform="translate(442,565)" d="m0 0h9l9 3 6 4 6 7 5 12 1 4v20l-4 12-7 11-9 9-15 9 12 14 10 10 7 6-3 5-8 8-7-6 5 7-5 6-7-6-12-14-13-18-4-5-3 19-2 19-1 1h-9l-7-1-1-2 1-10-2 9h-7l-1-1 1-12 6-31 12-54 5-26 3-3 12-2 11-3z" fill="#DA171A"/>
<path transform="translate(912,564)" d="m0 0h10l7 2 3 4-1 13-7 37 5-1h26l1-10 5-26 3-16 3-3h10l7 2 3 5-3 21-12 65-4 31-1 14-3 2-8-1-7-2 2-19-3 17-2 1-6-1 1-16 6-32 1-5-6-1h-22l-2 8-4 27-2 22-3 2-14-2-1-2 2-17-3 16h-8l1-14 5-29 12-56 6-33z" fill="#DB181B"/>
<path transform="translate(532,363)" d="m0 0h94l33 33 7-6 10-10 8-7 10-10h2v16l-36 36-7-6-31-31-2-1-75-1v121h84v-81l7 6 12 11 11 11 7-6 10-10 8-7 10-10 2 2 1 14-37 37-7-6-10-10-1 62h-110z" fill="#DB181B"/>
<path transform="translate(254,564)" d="m0 0h16l10 4 5 5 4 5 4 11v17l-5 3-7-3-5-1-1-14-4-8 2 4 1 3v12l-8-1-1-11h-6l-9 6-7 9-10 19-8 24-2 9-1 14 2 8 2 1h8l12-4 10-6 4-11h-13l-5-2-2-3 2-9 4-9h26l8 2 5 4 2 5v7l-5 19-2 12-1 15-3 1-15-1v-5l-2 4h-7l-11 4-4 1h-13l-10-3-10-9-4-8-2-8v-17l3-17 7-23 9-20 9-14 9-10 7-6 8-4z" fill="#DA171A"/>
<path transform="translate(552,564)" d="m0 0h8l8 2 3 4-1 13-9 65-3 28-1 22-3 2-9-1-6-1-1-3-14 7-10 3h-11l-10-5-6-7-4-10-1-6v-11l4-28 9-42 2-23 4-5 8-2h6l4 4 1 2v22l-5 26-5 23-2 14v23l13-7 11-11 2-8 9-54 4-30 3-5z" fill="#DA171A"/>
<path transform="translate(367,564)" d="m0 0h8l8 2 3 4-1 13-9 64-3 29-2 23-7 1-10-2-1-3-14 7-10 3h-11l-10-5-6-7-4-10-1-6v-11l4-28 8-37 2-12 1-16 2-4 10-3h6l4 4 1 2v21l-4 22-6 27-2 15v23l11-6 10-9 4-5 10-60 4-30 3-5z" fill="#DA171A"/>
<path transform="translate(864,561)" d="m0 0 11 2 8 7 4 9v16l-4 11-4 5-3 2h-7l-7-9-1-6 2-10-4 1-8 7-7 8-4 9v11l4 6 15 12 8 7 7 8 3 7 1 7-2 9-6 8-7 6-17 8-10 2-13-1-10-4-9-9-5-10-3-11v-9l3-3 6 1 7 1 2 6 3 12 5 7 3 1-5-4-4-9-1-9 1-1h7l3 11 2 3 7 1 11-4 5-3-3-5-13-11-10-8-6-9-4-11v-14l5-15 9-13 13-13 14-8z" fill="#DB181B"/>
<path transform="translate(1016,564)" d="m0 0h67l1 1-1 17h-11l9 2v8h-10l-21-2-2 13-12 61-3 24-1 14-3 2-8-1-7-2 2-18-1-1-1 11-2 7-7-1v-10l7-36 11-49 3-15h-26l-3-4v-16l3-4z" fill="#DB181B"/>
<path transform="translate(475,200)" d="m0 0h63v13h-50v225h23v13h-36z" fill="#DB181B"/>
<path transform="translate(782,564)" d="m0 0 12 1 6 3 1 2-1 13-10 53-6 35-3 31-3 2-8-1-7-2 2-18-3 16-2 1-6-1v-8l6-35 12-55 6-33z" fill="#DB181B"/>
<path transform="translate(1104,564)" d="m0 0 15 2 3 4v8l-8 43-7 38-3 22-2 21-3 2-14-2v-10-3l-2 10-2 1-6-1 1-13 5-29 12-56 6-33z" fill="#DB181B"/>
<path transform="translate(538,200)" d="m0 0h244v13h-244z" fill="#fff"/>
<path transform="translate(694,411)" d="m0 0 2 2 1 14-37 37-7-6-10-10-1 62h-77v-13h64v-81l7 6 12 11 11 11 7-6 10-10 8-7z" fill="#fff"/>
<path transform="translate(575,273)" d="m0 0h15l9 4 8 7 4 8 2 7v8l-3 10-4 6-7 6-10 4h-14l-10-4-5-4-4-5-4-11v-13l4-9 4-6 9-6z" fill="#0B0A0A"/>
<path transform="translate(584,363)" d="m0 0h42l33 33 7-6 10-10 8-7 10-10h2v16l-36 36-7-6-31-31-2-1-55-1v-12z" fill="#fff"/>
<path transform="translate(629,587)" d="m0 0h8l3 5v11l-4 16-7 17-8 15-10 13-8 8-4 2 3-21 12-58 3-3z" fill="#0A0A0A"/>
<path transform="translate(713,289)" d="m0 0h72l3 1v12h-78v-12z" fill="#fff"/>
<path transform="translate(704,438)" d="m0 0h78v12l-36 1h-42z" fill="#fff"/>
<path transform="translate(680,260)" d="m0 0h78l1 5-1 7-26 1h-26l-26-1z" fill="#fff"/>
<path transform="translate(712,589)" d="m0 0h9l4 6 1 4v10l-3 8-9 10-7 3h-9l-3-1 1-9 6-28z" fill="#0A0A0A"/>
<path transform="translate(441,589)" d="m0 0h9l3 4 2 8-1 11-5 9-8 7-5 2h-10l-2-1 1-10 5-25 3-3z" fill="#0A0A0A"/>
<path transform="translate(695,361)" d="m0 0 4 2 30 30-2 4-29 29-2-1-1-12-1-3 16-16-6-7-8-8v-16l-2-1z" fill="#DB181B"/>
<path transform="translate(610,315)" d="m0 0 2 4v16l-9 7-11 4h-18l-10-4-8-5-2-2v-16l2-1 4 5v2l4 2 7 4 4 1h14l10-4 8-7z" fill="#fff"/>
<path transform="translate(574,260)" d="m0 0h17l11 4 9 6 1 5v13l-2 3-5-8-7-6-8-3h-15l-9 4-4 3h-2l-2 4-2 3h-2v-17l6-5 10-5z" fill="#fff"/>
<path transform="translate(690,319)" d="m0 0h59v12l-9 1h-42l-8-1z" fill="#fff"/>
<path transform="translate(840,760)" d="m0 0h14l5 3 2 5v11l-3 7-2 1 2 6 1 6-4-1-5-9-7-1v11l-4-1v-36z" fill="#fff"/>
<path transform="translate(612,272)" d="m0 0h2l6 8 4 8 2 8v14l-4 12-5 8-5 5-1-10v-13l1-5v-8l-2-8 1-9v-8z" fill="#DB181B"/>
<path transform="translate(553,271)" d="m0 0h1v17l2 1-3 7v13l3 9-1 1-1 16-5-5-4-5-5-12-1-11 2-11 4-10z" fill="#DB181B"/>
<path transform="translate(805,760)" d="m0 0h14l5 3 1 2v18l-4 4-2 1h-11v11h-4v-38z" fill="#fff"/>
<path transform="translate(770,760)" d="m0 0h14l6 5v17l-4 5-2 1h-11v10l-4 1v-38z" fill="#fff"/>
<path transform="translate(332,760)" d="m0 0 4 1 9 29 1 9-4-1-2-9-12 1-3 9h-4l2-10 8-27z" fill="#fff"/>
<path transform="translate(886,760)" d="m0 0 4 2 10 33v4l-4-1-2-9-12 1-4 9h-3l1-8 8-28z" fill="#fff"/>
<path transform="translate(740,760)" d="m0 0 4 2 10 33-1 4-3-1-3-8-12-1-3 10-4-1 10-35z" fill="#fff"/>
<path transform="translate(981,760)" d="m0 0 4 2 9 29 1 8-4-1-2-9-12 1-4 9h-3l1-8 9-30z" fill="#fff"/>
<path transform="translate(402,760)" d="m0 0 4 1 1 31 5 3 7-1 3-3 1-30h4v31l-4 6-5 2h-7l-6-3-3-4z" fill="#fff"/>
<path transform="translate(367,760)" d="m0 0h11l6 3 2 6-1 2-4-1-1-5h-10l-4 2-1 5v16l1 6 8 1 6-2 3-7 3 1-1 7-5 5-3 1h-7l-7-3-2-3-1-5v-18l2-7z" fill="#fff"/>
<path transform="translate(574,760)" d="m0 0h9l6 5-1 3-5-2-1-1-9 1-1 4 5 5 11 6 3 5-1 8-5 5-2 1-9-1-6-5 1-3 4 1v2l8 1 4-2 1-4-3-5-13-8-3-4 1-7 4-4z" fill="#fff"/>
<path transform="translate(940,760)" d="m0 0h9l5 3 1 4h-4l-3-2h-6l-3 2v5l16 10 2 3v7l-4 6-4 2-9-1-5-4v-4l4 1 4 3 7-1 2-3-1-7-5-2-10-6-2-3v-8z" fill="#fff"/>
<path transform="translate(606,760)" d="m0 0h18v4h-14v13h11l1 4h-12v14h13l2 1-1 3h-18z" fill="#fff"/>
<path transform="translate(291,760)" d="m0 0h18v4h-14v13h10l2 1v3h-12v16l-1 2-4-1v-36z" fill="#fff"/>
<path transform="translate(758,260)" d="m0 0h21v12l-16 1h-31v-1h26z" fill="#DB181B"/>
<path transform="translate(660,260)" d="m0 0h20v12h26v1h-41l-5-1z" fill="#DB181B"/>
<path transform="translate(674,760)" d="m0 0h17l1 4h-15v13h11l2 1-1 3-11 1-1 17-4-1v-37z" fill="#fff"/>
<path transform="translate(785,289)" d="m0 0h23v13h-20v-12z" fill="#DB181B"/>
<path transform="translate(690,289)" d="m0 0h23l-3 1v12h-20z" fill="#DB181B"/>
<path transform="translate(843,764)" d="m0 0h10l3 2v16l-4 2h-8l-1-1z" fill="#250B0C"/>
<path transform="translate(808,764)" d="m0 0h10l3 3v14l-4 3h-9z" fill="#150A0A"/>
<path transform="translate(773,764)" d="m0 0h10l3 3v14l-5 3h-8z" fill="#150A0A"/>
<path transform="translate(509,760)" d="m0 0 4 1 6 12 3-4 4-9 4 1-2 6-6 12-1 20-4-1-1-20-7-14z" fill="#fff"/>
<path transform="translate(474,760)" d="m0 0h22l1 2-1 2h-9v35h-4v-35h-9z" fill="#fff"/>
<path transform="translate(641,760)" d="m0 0h3v35h14l2 1-1 3h-18l-1-1v-36z" fill="#fff"/>
<path transform="translate(444,760)" d="m0 0h3v35h14l2 1-1 3h-18l-1-1v-36z" fill="#fff"/>
<path transform="translate(1011,760)" d="m0 0 3 1v34h13l2 1v3h-19v-38z" fill="#fff"/>
<path transform="translate(749,319)" d="m0 0h15v13h-24v-1h9z" fill="#DB181B"/>
<path transform="translate(675,319)" d="m0 0h15v12h8v1h-23z" fill="#DB181B"/>
<path transform="translate(916,760)" d="m0 0 3 1v37l-4 1v-38z" fill="#fff"/>
<path transform="translate(333,769)" d="m0 0 2 2 4 14h-10l2-9z" fill="#1D0B0B"/>
<path transform="translate(982,769)" d="m0 0 2 3 3 10v3h-9l1-7z" fill="#1E0B0B"/>
<path transform="translate(887,769)" d="m0 0 2 4 3 9v3h-10z" fill="#1B0B0B"/>
<path transform="translate(740,770)" d="m0 0h2l4 13v2h-10z" fill="#1B0B0B"/>
</svg>
